# Blender v2.78 (sub 0) OBJ File: ''
# www.blender.org
mtllib Dragonblade_Collision_Mesh.mtl
o Dragonblade_Collision_mesh_Cylinder
v -0.000517 0.105431 -0.021608
v -0.000517 0.278975 -0.021608
v 0.018736 0.105431 -0.010492
v 0.018736 0.278975 -0.010492
v 0.018736 0.077240 0.011739
v 0.018736 0.278975 0.011739
v -0.000517 0.105431 0.022855
v -0.000517 0.289099 0.031756
v -0.019770 0.105431 0.011739
v -0.019770 0.278975 0.011739
v -0.019770 0.105431 -0.010492
v -0.026685 0.278975 -0.010492
v 0.038683 0.324464 -0.009618
v -0.000517 0.324464 -0.038524
v 0.038683 0.324464 0.010865
v -0.000517 0.333248 0.016330
v -0.039718 0.324464 0.010865
v -0.039718 0.324464 -0.009618
v -0.004794 0.056054 -0.046026
v 0.025658 0.048287 -0.025139
v 0.038760 0.033586 0.035081
v -0.004794 0.056054 0.047273
v -0.053618 0.056054 0.007302
v -0.048879 0.043632 -0.007091
v -0.004794 0.000068 -0.012519
v 0.006588 0.000068 -0.005948
v 0.006588 0.000068 0.007195
v -0.004794 0.000068 0.013766
v -0.037236 0.012056 0.007195
v -0.041821 0.020392 -0.007505
v -0.000517 0.227850 -0.021608
v 0.018736 0.227850 -0.010492
v 0.018736 0.227850 0.011739
v -0.000517 0.227850 0.022940
v -0.019770 0.227850 0.011739
v -0.019770 0.227850 -0.010492
v -0.039146 0.323894 0.013191
v -0.039146 0.404844 0.024048
v -0.039146 0.323894 -0.036952
v -0.039146 0.404844 -0.036952
v 0.039146 0.323894 0.013191
v 0.039146 0.404844 0.024048
v 0.039146 0.323894 -0.036952
v 0.039146 0.404844 -0.036952
v -0.061929 0.501609 0.014675
v -0.061929 0.501609 -0.016660
v 0.061929 0.501609 -0.016660
v 0.061929 0.501609 0.014675
v -0.050289 0.557689 0.004127
v -0.050289 0.557689 -0.006113
v 0.050289 0.557689 -0.006113
v 0.050289 0.557689 0.004127
v -0.050289 1.552518 0.004127
v -0.050289 1.552518 -0.006113
v 0.050289 1.552518 -0.006113
v 0.050289 1.552518 0.004127
v -0.004402 1.643158 0.004127
v -0.004402 1.643158 -0.006113
v 0.004402 1.643158 -0.006113
v 0.004402 1.643158 0.004127
v -0.124266 0.292623 -0.002097
v -0.093252 0.427932 0.008047
v 0.093246 0.427971 0.008047
v 0.124261 0.292662 -0.002097
v -0.039146 0.364369 0.024048
v -0.039146 0.364369 -0.036952
v 0.039146 0.364369 -0.036952
v 0.039146 0.364369 0.024048
v -0.147836 0.357538 0.010409
v 0.147698 0.357336 0.010809
vn 0.5000 0.0000 -0.8660
vn 1.0000 0.0000 0.0000
vn 0.5029 0.0000 0.8644
vn -0.5029 0.0000 0.8644
vn -0.6266 -0.2606 0.7345
vn -1.0000 0.0000 0.0000
vn -0.5000 0.0000 -0.8660
vn -0.8248 0.5654 0.0000
vn 0.9158 -0.4016 0.0000
vn -0.9613 -0.2754 0.0000
vn 0.5765 -0.2378 -0.7818
vn 0.2013 0.3231 0.9247
vn -0.3699 -0.3238 -0.8708
vn -0.6234 -0.1757 -0.7619
vn 0.5901 0.3162 -0.7428
vn 0.4817 0.5747 0.6616
vn -0.6785 0.2823 -0.6782
vn -0.4522 0.4265 0.7833
vn 0.9893 0.0904 0.1147
vn 0.0000 -1.0000 0.0000
vn -0.3417 -0.4826 0.8064
vn 0.9299 -0.3678 0.0000
vn -0.9371 -0.3489 -0.0074
vn 0.3200 -0.7683 0.5543
vn 0.4161 -0.4670 -0.7803
vn -0.5000 0.0000 0.8660
vn 0.5000 0.0000 0.8660
vn 0.3448 -0.9387 0.0000
vn 0.0000 0.0000 -1.0000
vn 0.3925 0.9198 0.0000
vn 0.0000 0.0000 1.0000
vn -0.9734 -0.2292 0.0000
vn 0.9791 0.2032 0.0000
vn 0.0000 0.0964 0.9953
vn 0.0000 0.2052 -0.9787
vn 0.9734 -0.2292 0.0000
vn 0.0000 0.1848 0.9828
vn 0.0000 0.1848 -0.9828
vn 0.8922 0.4517 0.0000
vn 0.0000 1.0000 0.0000
vn -0.8922 0.4517 0.0000
vn 0.1005 -0.2578 0.9610
vn -0.3445 -0.9388 0.0000
vn -0.4009 0.0308 -0.9156
vn -0.1317 0.1351 0.9820
vn -0.3931 0.9195 0.0000
vn 0.4020 0.2758 -0.8731
vn 0.3790 0.0000 -0.9254
vn -0.0932 -0.2209 0.9708
vn -0.6394 0.0000 -0.7689
vn 0.2836 0.0000 0.9589
vn -0.9791 0.2032 0.0000
vn 0.0000 -0.2591 0.9659
vn 0.6903 -0.1031 0.7161
vn -0.6903 -0.1031 0.7161
vn -0.2013 0.3231 0.9247
vn -0.9470 -0.1281 0.2945
vn -0.3904 -0.0528 -0.9191
vn -0.7715 0.3335 -0.5419
vn -0.8826 -0.3817 0.2745
vn 0.4759 -0.3065 -0.8243
vn 0.6266 -0.2606 0.7345
vn -0.5865 -0.1528 -0.7954
vn -0.3699 -0.4771 -0.7972
vn 0.4812 0.2719 -0.8334
vn 0.7320 0.2500 0.6338
vn -0.4522 0.4265 -0.7833
vn -0.5951 0.3426 0.7269
vn 0.9246 0.3641 -0.1123
vn -0.4894 -0.8152 -0.3097
vn -0.3466 -0.9380 0.0000
vn -0.6163 -0.2313 0.7528
vn 0.8006 -0.5183 -0.3007
vn -0.9479 -0.2903 0.1311
vn -0.0247 -0.5134 0.8578
vn 0.4395 -0.4768 -0.7613
vn -0.5029 -0.0006 0.8644
vn 0.5029 -0.0006 0.8644
vn 0.0911 -0.2265 0.9697
vn -0.3789 0.0000 -0.9254
vn -0.2836 0.0000 0.9589
vn 0.6395 0.0000 -0.7688
vn 0.4044 0.0358 -0.9139
vn -0.1043 -0.2577 0.9606
vn -0.3983 0.2795 -0.8737
vn 0.1287 0.1376 0.9821
usemtl None
s off
f 2//1 32//1 31//1
f 4//2 33//2 32//2
f 6//3 34//3 33//3
f 34//4 10//4 35//4
f 8//5 17//5 10//5
f 10//6 36//6 35//6
f 36//7 2//7 31//7
f 11//8 23//8 9//8
f 4//9 15//9 6//9
f 12//10 17//10 18//10
f 4//11 14//11 13//11
f 8//12 15//12 16//12
f 12//13 14//13 2//13
f 19//14 30//14 24//14
f 1//15 20//15 19//15
f 5//16 22//16 21//16
f 11//17 19//17 24//17
f 9//18 22//18 7//18
f 5//19 20//19 3//19
f 27//20 28//20 25//20
f 22//21 29//21 28//21
f 20//22 27//22 26//22
f 24//23 29//23 23//23
f 21//24 28//24 27//24
f 20//25 25//25 19//25
f 36//7 1//7 11//7
f 35//6 11//6 9//6
f 7//26 35//26 9//26
f 33//27 7//27 5//27
f 3//2 33//2 5//2
f 31//1 3//1 1//1
f 39//28 37//28 61//28
f 40//29 67//29 66//29
f 38//30 40//30 62//30
f 42//31 65//31 68//31
f 43//20 37//20 39//20
f 38//32 46//32 40//32
f 47//33 52//33 48//33
f 42//34 45//34 38//34
f 40//35 47//35 44//35
f 42//36 47//36 48//36
f 52//37 45//37 48//37
f 50//38 47//38 46//38
f 52//31 53//31 49//31
f 55//39 60//39 56//39
f 50//29 55//29 51//29
f 51//2 56//2 52//2
f 49//6 54//6 50//6
f 58//40 60//40 59//40
f 53//41 58//41 54//41
f 56//31 57//31 53//31
f 54//29 59//29 55//29
f 41//42 70//42 68//42
f 41//43 43//43 64//43
f 66//44 61//44 69//44
f 65//45 62//45 69//45
f 44//46 42//46 63//46
f 67//47 63//47 70//47
f 67//48 64//48 43//48
f 37//49 69//49 61//49
f 66//50 62//50 40//50
f 68//51 63//51 42//51
f 49//52 46//52 45//52
f 68//53 37//53 41//53
f 66//29 43//29 39//29
f 2//1 4//1 32//1
f 4//2 6//2 33//2
f 6//54 8//54 34//54
f 34//55 8//55 10//55
f 8//56 16//56 17//56
f 10//57 12//57 36//57
f 36//58 12//58 2//58
f 11//59 24//59 23//59
f 4//9 13//9 15//9
f 12//60 10//60 17//60
f 4//61 2//61 14//61
f 8//62 6//62 15//62
f 12//63 18//63 14//63
f 19//64 25//64 30//64
f 1//65 3//65 20//65
f 5//66 7//66 22//66
f 11//67 1//67 19//67
f 9//68 23//68 22//68
f 5//69 21//69 20//69
f 30//70 25//70 29//70
f 26//20 27//20 25//20
f 28//71 29//71 25//71
f 22//72 23//72 29//72
f 20//73 21//73 27//73
f 24//74 30//74 29//74
f 21//75 22//75 28//75
f 20//76 26//76 25//76
f 36//7 31//7 1//7
f 35//6 36//6 11//6
f 7//77 34//77 35//77
f 33//78 34//78 7//78
f 3//2 32//2 33//2
f 31//1 32//1 3//1
f 40//29 44//29 67//29
f 42//31 38//31 65//31
f 43//20 41//20 37//20
f 38//32 45//32 46//32
f 47//33 51//33 52//33
f 42//34 48//34 45//34
f 40//35 46//35 47//35
f 42//36 44//36 47//36
f 52//37 49//37 45//37
f 50//38 51//38 47//38
f 52//31 56//31 53//31
f 55//39 59//39 60//39
f 50//29 54//29 55//29
f 51//2 55//2 56//2
f 49//6 53//6 54//6
f 58//40 57//40 60//40
f 53//41 57//41 58//41
f 56//31 60//31 57//31
f 54//29 58//29 59//29
f 41//79 64//79 70//79
f 66//80 39//80 61//80
f 65//81 38//81 62//81
f 67//82 44//82 63//82
f 67//83 70//83 64//83
f 37//84 65//84 69//84
f 66//85 69//85 62//85
f 68//86 70//86 63//86
f 49//52 50//52 46//52
f 68//53 65//53 37//53
f 66//29 67//29 43//29
